{
  "accessors": [
    {
      "bufferView": 0,
      "componentType": 5125,
      "count": 3378,
      "type": "SCALAR"
    },
    {
      "bufferView": 1,
      "componentType": 5126,
      "count": 784,
      "max": [
        0.713356196880341,
        1.0,
        0.713356196880341
      ],
      "min": [
        -0.713356196880341,
        -1.0,
        -0.713356256484985
      ],
      "type": "VEC3"
    },
    {
      "bufferView": 2,
      "componentType": 5126,
      "count": 784,
      "type": "VEC3"
    },
    {
      "bufferView": 3,
      "componentType": 5126,
      "count": 784,
      "type": "VEC2"
    }
  ],
  "asset": {
    "generator": "Substance Painter 2019.2.0",
    "version": "2.0"
  },
  "bufferViews": [
    {
      "buffer": 0,
      "byteLength": 13512,
      "target": 34963
    },
    {
      "buffer": 0,
      "byteLength": 9408,
      "byteOffset": 13512,
      "target": 34962
    },
    {
      "buffer": 0,
      "byteLength": 9408,
      "byteOffset": 22920,
      "target": 34962
    },
    {
      "buffer": 0,
      "byteLength": 6272,
      "byteOffset": 32328,
      "target": 34962
    }
  ],
  "buffers": [
    {
      "byteLength": 38600,
      "uri": "BARREL.bin"
    }
  ],
  "images": [
    {
      "uri": "Material _25_baseColor.png"
    },
    {
      "uri": "Material _25_occlusionRoughnessMetallic.png"
    },
    {
      "uri": "Material _25_normal.png"
    }
  ],
  "materials": [
    {
      "alphaMode": "OPAQUE",
      "name": "Material _25",
      "normalTexture": {
        "index": 2
      },
      "occlusionTexture": {
        "index": 1
      },
      "pbrMetallicRoughness": {
        "baseColorTexture": {
          "index": 0
        },
        "metallicRoughnessTexture": {
          "index": 1
        }
      }
    }
  ],
  "meshes": [
    {
      "name": "Cylinder002",
      "primitives": [
        {
          "attributes": {
            "NORMAL": 2,
            "POSITION": 1,
            "TEXCOORD_0": 3
          },
          "indices": 0,
          "material": 0,
          "mode": 4
        }
      ]
    }
  ],
  "nodes": [
    {
      "children": [
        1
      ],
      "name": "root",
      "scale": [
        37.6952743530273,
        37.6952743530273,
        37.6952743530273
      ],
      "translation": [
        0.0,
        37.6952743530273,
        0.0
      ]
    },
    {
      "children": [
        2
      ],
      "name": "Cylinder002"
    },
    {
      "mesh": 0,
      "name": "Cylinder002"
    }
  ],
  "samplers": [
    {
      "magFilter": 9729,
      "minFilter": 9985,
      "wrapS": 10497,
      "wrapT": 10497
    }
  ],
  "scene": 0,
  "scenes": [
    {
      "name": "Scene",
      "nodes": [
        0
      ]
    }
  ],
  "textures": [
    {
      "sampler": 0,
      "source": 0
    },
    {
      "sampler": 0,
      "source": 1
    },
    {
      "sampler": 0,
      "source": 2
    }
  ]
}